<?xml version="1.0" standalone="no"?>
<!DOCTYPE svg PUBLIC "-//W3C//DTD SVG 20010904//EN"
 "http://www.w3.org/TR/2001/REC-SVG-20010904/DTD/svg10.dtd">
<svg version="1.0" xmlns="http://www.w3.org/2000/svg"
 width="162.000000pt" height="148.000000pt" viewBox="0 0 162.000000 148.000000"
 preserveAspectRatio="xMidYMid meet">

<g transform="translate(0.000000,148.000000) scale(0.100000,-0.100000)"
fill="#000000" stroke="none">
<path d="M1175 1196 c-156 -52 -229 -84 -272 -120 -30 -25 -33 -33 -33 -82 0
-29 9 -75 20 -103 l19 -50 -45 -89 c-48 -94 -52 -132 -14 -132 14 0 29 21 56
75 46 95 51 99 106 84 68 -18 164 -16 187 5 25 22 64 148 96 307 27 138 29
149 18 148 -5 0 -66 -20 -138 -43z m80 -68 c-14 -85 -65 -271 -80 -294 -18
-27 -52 -31 -134 -13 -47 10 -50 12 -40 32 7 11 52 62 101 113 91 94 106 126
62 132 -16 2 -47 -25 -122 -104 -112 -117 -107 -116 -126 -27 -11 50 1 71 57
100 55 28 253 102 275 102 11 1 12 -9 7 -41z"/>
<path d="M430 1086 c0 -18 44 -215 60 -268 18 -59 24 -68 53 -77 23 -8 49 -8
86 -1 64 12 76 5 93 -52 14 -47 37 -63 64 -44 18 13 17 17 -14 88 -30 70 -31
75 -17 113 38 105 1 140 -224 214 -100 33 -101 33 -101 27z m143 -90 c112 -42
147 -64 147 -90 0 -61 -10 -60 -75 4 -41 41 -69 61 -81 58 -38 -7 -27 -38 38
-106 62 -65 62 -66 38 -73 -14 -4 -39 -7 -57 -8 -29 -1 -33 3 -47 47 -8 26
-20 70 -26 97 -5 28 -12 60 -15 73 -7 28 0 28 78 -2z"/>
<path d="M240 423 l0 -218 115 3 115 3 0 30 c0 27 3 29 36 29 19 0 77 -12 127
-27 76 -23 112 -27 207 -28 l115 0 147 73 c83 41 157 85 168 99 28 36 26 88
-5 118 -39 40 -134 30 -278 -30 -16 -7 -16 -5 -6 19 20 44 0 73 -58 81 -26 4
-93 18 -148 31 -160 37 -192 39 -252 16 -52 -20 -53 -20 -53 -1 0 18 -9 19
-115 19 l-115 0 0 -217z m160 122 c0 -15 6 -25 14 -25 7 0 44 11 80 25 83 31
118 31 264 0 64 -14 128 -28 141 -31 23 -5 23 -6 7 -22 -13 -13 -35 -17 -104
-17 l-87 0 -3 -31 c-3 -28 0 -32 30 -38 18 -4 69 -9 113 -12 75 -6 87 -4 193
35 63 23 126 41 142 41 28 0 46 -22 34 -42 -3 -5 -74 -43 -158 -85 l-151 -75
-91 6 c-50 3 -128 17 -175 31 -59 17 -109 25 -166 25 l-83 0 0 -30 c0 -29 -1
-30 -50 -30 l-50 0 0 150 0 150 50 0 c47 0 50 -2 50 -25z"/>
</g>
</svg>
