<?xml version="1.0" standalone="no"?>
<!DOCTYPE svg PUBLIC "-//W3C//DTD SVG 20010904//EN"
 "http://www.w3.org/TR/2001/REC-SVG-20010904/DTD/svg10.dtd">
<svg version="1.0" xmlns="http://www.w3.org/2000/svg"
 width="148.000000pt" height="148.000000pt" viewBox="0 0 148.000000 148.000000"
 preserveAspectRatio="xMidYMid meet">

<g transform="translate(0.000000,148.000000) scale(0.100000,-0.100000)"
fill="#000000" stroke="none">
<path d="M1385 975 c-27 -10 -60 -36 -101 -81 l-62 -68 -208 12 c-114 7 -210
14 -212 16 -2 2 6 23 18 46 43 85 13 89 -151 19 l-118 -50 -110 9 c-60 5 -124
6 -143 3 -32 -5 33 -10 547 -45 454 -31 597 -44 607 -54 14 -14 -26 -52 -54
-52 -22 -1 -21 -2 7 -25 17 -14 36 -25 43 -25 6 0 12 -5 12 -10 0 -12 -28 -7
-128 26 -84 28 -83 28 -79 12 4 -24 -391 -60 -430 -40 -26 14 -285 28 -336 18
-30 -6 -37 -11 -37 -31 0 -15 7 -26 19 -30 16 -5 20 -14 18 -47 -1 -29 4 -44
18 -54 35 -26 132 -12 173 26 l21 20 153 -36 c174 -41 259 -48 284 -22 22 22
12 34 -34 40 -42 6 -212 78 -212 90 0 5 27 8 61 8 60 0 301 26 328 35 7 3 44
-4 83 -16 73 -21 109 -22 115 -2 3 6 -10 19 -27 28 l-32 16 26 24 c14 13 26
30 26 38 0 18 -21 37 -42 37 -22 0 -22 13 -2 96 10 38 13 69 8 74 -5 5 -27 2
-49 -5z m35 -22 c0 -10 -4 -34 -9 -53 -5 -19 -12 -47 -15 -63 l-7 -28 -67 7
c-37 4 -69 8 -71 10 -2 2 16 27 40 55 63 75 129 112 129 72z m-600 -14 c0 -5
-10 -27 -22 -48 l-22 -38 -75 5 c-42 2 -81 7 -88 11 -14 7 152 80 185 81 12 0
22 -5 22 -11z m-30 -279 c19 -4 89 -33 155 -64 68 -32 134 -56 152 -56 35 0
44 -14 17 -24 -9 -3 -33 -6 -54 -6 -39 0 -537 112 -577 130 -35 15 -27 28 20
33 57 5 244 -3 287 -13z m-260 -91 c0 -19 -5 -29 -15 -29 -15 0 -22 50 -9 63
12 12 24 -4 24 -34z m102 17 c20 -4 25 -11 21 -25 -5 -21 -31 -31 -80 -31 -32
0 -33 2 -33 39 l0 39 33 -8 c17 -4 44 -11 59 -14z"/>
<path d="M144 845 c-59 -30 -117 -84 -135 -127 -16 -39 1 -73 51 -102 31 -19
55 -21 207 -24 109 -3 178 0 190 7 13 8 -28 10 -157 10 -96 0 -190 5 -209 10
-79 24 -93 77 -36 140 l35 38 39 -19 c51 -25 95 -21 99 10 3 18 -2 23 -27 28
-48 10 -46 22 6 38 42 13 44 15 17 15 -16 1 -53 -10 -80 -24z m-9 -35 c-3 -5
-11 -10 -16 -10 -6 0 -7 5 -4 10 3 6 11 10 16 10 6 0 7 -4 4 -10z m31 -27
c-10 -10 -19 5 -10 18 6 11 8 11 12 0 2 -7 1 -15 -2 -18z m44 2 c0 -8 -4 -15
-10 -15 -5 0 -10 7 -10 15 0 8 5 15 10 15 6 0 10 -7 10 -15z"/>
<path d="M277 774 c-11 -11 -8 -44 3 -44 6 0 10 9 10 21 0 12 5 19 13 16 6 -2
11 -11 9 -21 -2 -9 2 -16 8 -16 6 0 10 10 8 23 -3 22 -36 36 -51 21z"/>
<path d="M804 766 c-3 -8 -4 -23 -1 -33 4 -14 5 -13 6 5 0 12 7 22 15 22 8 0
17 -10 19 -22 4 -16 5 -13 4 7 -2 33 -33 48 -43 21z"/>
<path d="M425 759 c-10 -15 3 -25 16 -12 7 7 7 13 1 17 -6 3 -14 1 -17 -5z"/>
<path d="M370 750 c0 -5 5 -10 10 -10 6 0 10 5 10 10 0 6 -4 10 -10 10 -5 0
-10 -4 -10 -10z"/>
<path d="M475 750 c3 -5 10 -10 16 -10 5 0 9 5 9 10 0 6 -7 10 -16 10 -8 0
-12 -4 -9 -10z"/>
<path d="M530 750 c0 -5 5 -10 10 -10 6 0 10 5 10 10 0 6 -4 10 -10 10 -5 0
-10 -4 -10 -10z"/>
<path d="M900 750 c0 -5 5 -10 10 -10 6 0 10 5 10 10 0 6 -4 10 -10 10 -5 0
-10 -4 -10 -10z"/>
<path d="M950 750 c0 -5 5 -10 10 -10 6 0 10 5 10 10 0 6 -4 10 -10 10 -5 0
-10 -4 -10 -10z"/>
<path d="M1000 750 c0 -5 5 -10 10 -10 6 0 10 5 10 10 0 6 -4 10 -10 10 -5 0
-10 -4 -10 -10z"/>
<path d="M1055 750 c-3 -5 1 -10 10 -10 9 0 13 5 10 10 -3 6 -8 10 -10 10 -2
0 -7 -4 -10 -10z"/>
</g>
</svg>
