<?xml version="1.0" standalone="no"?>
<!DOCTYPE svg PUBLIC "-//W3C//DTD SVG 20010904//EN"
 "http://www.w3.org/TR/2001/REC-SVG-20010904/DTD/svg10.dtd">
<svg version="1.0" xmlns="http://www.w3.org/2000/svg"
 width="148.000000pt" height="148.000000pt" viewBox="0 0 148.000000 148.000000"
 preserveAspectRatio="xMidYMid meet">

<g transform="translate(0.000000,148.000000) scale(0.100000,-0.100000)"
fill="#000000" stroke="none">
<path d="M575 1470 c-3 -5 2 -21 11 -35 17 -26 16 -28 -17 -96 -31 -65 -32
-72 -19 -96 20 -35 46 -51 61 -36 8 8 7 17 -6 36 -16 24 -15 28 15 91 22 45
30 72 25 88 -14 45 -54 73 -70 48z"/>
<path d="M353 1414 c-3 -8 -1 -20 6 -27 18 -18 13 -53 -16 -112 -22 -44 -25
-60 -17 -81 11 -32 35 -49 57 -41 15 6 15 9 -1 37 -17 30 -16 31 11 80 32 60
35 108 7 138 -24 26 -38 28 -47 6z"/>
<path d="M802 1421 c-10 -6 -9 -14 5 -39 17 -30 17 -32 -10 -87 -15 -30 -27
-68 -27 -84 0 -32 32 -66 55 -58 17 7 20 23 5 32 -17 10 -11 43 15 95 30 60
31 89 4 124 -22 28 -27 30 -47 17z"/>
<path d="M442 1080 c-193 -52 -344 -195 -408 -385 -35 -105 -38 -255 -6 -355
39 -120 127 -240 229 -311 31 -21 53 -29 85 -29 l43 1 -59 32 c-66 36 -186
149 -186 175 0 9 7 35 15 57 23 65 20 72 -44 104 l-58 30 -6 61 c-11 125 22
252 94 360 51 75 110 128 197 173 99 52 213 78 132 30 -31 -18 -34 -31 -16
-74 5 -12 -4 -20 -39 -33 -29 -12 -45 -24 -45 -35 0 -9 -7 -26 -15 -37 -17
-22 -19 -50 -5 -59 5 -3 36 1 68 10 l57 16 59 -35 c32 -19 66 -42 76 -51 9 -8
25 -15 35 -15 13 0 16 -3 9 -10 -7 -7 -21 -6 -45 4 -23 10 -39 11 -52 5 -23
-13 -37 -3 -37 27 0 20 -5 24 -30 24 -71 0 -170 -76 -200 -155 -19 -50 -12
-117 18 -160 27 -38 31 -40 91 -45 63 -5 63 -5 78 -45 9 -22 17 -74 18 -115 2
-41 9 -97 17 -125 13 -43 19 -50 43 -53 15 -2 38 -1 51 2 23 6 88 91 79 105
-2 5 7 19 21 32 21 20 25 31 22 74 -2 44 2 56 36 103 29 39 37 60 34 81 -3 20
1 32 13 40 34 21 39 44 18 90 l-19 44 40 -7 c35 -5 40 -4 40 13 0 23 -10 27
-83 36 -52 7 -57 6 -57 -12 0 -10 11 -35 25 -55 38 -56 31 -78 -27 -92 -33 -8
-36 -31 -7 -55 l21 -17 -41 -58 c-37 -53 -40 -62 -34 -103 5 -37 3 -46 -15
-59 -11 -8 -26 -31 -32 -52 -15 -45 -37 -72 -61 -72 -25 0 -51 93 -43 154 5
32 2 58 -9 84 -8 20 -18 49 -21 64 -7 32 -44 46 -102 40 -36 -3 -44 0 -64 25
-18 23 -21 37 -18 79 4 41 12 60 43 98 35 43 80 76 103 76 5 0 12 -9 15 -20 6
-24 72 -54 96 -44 9 3 35 6 58 5 46 -3 63 15 63 63 0 21 -5 26 -24 26 -22 0
-94 39 -162 87 l-30 22 -43 -20 c-53 -23 -50 -23 -44 1 3 12 27 32 54 46 50
25 61 49 40 83 -7 11 1 22 31 44 35 25 46 28 87 23 25 -4 82 -10 127 -14 67
-6 90 -13 133 -40 47 -29 55 -31 72 -18 19 13 17 16 -38 50 -126 79 -314 106
-461 66z m-322 -785 c0 -29 -15 -33 -23 -7 -2 9 -8 25 -12 36 -7 16 -6 17 13
7 14 -7 22 -21 22 -36z"/>
<path d="M1051 874 c-17 -14 -35 -42 -41 -62 -5 -21 -10 -144 -10 -276 l0
-238 -31 -36 c-17 -20 -38 -50 -45 -68 -17 -40 -18 -119 -3 -163 l11 -31 193
0 193 0 13 32 c30 74 6 181 -55 237 l-26 24 0 259 c0 277 -3 298 -52 332 -36
26 -111 21 -147 -10z m134 -39 c24 -23 25 -28 25 -175 l0 -150 -86 0 -85 0 3
151 3 151 28 24 c37 31 81 31 112 -1z"/>
<path d="M1337 793 c-4 -3 -7 -12 -7 -20 0 -9 18 -13 68 -13 73 0 84 4 75 26
-4 10 -23 14 -67 14 -35 0 -66 -3 -69 -7z"/>
<path d="M1337 673 c-4 -3 -7 -12 -7 -20 0 -9 18 -13 68 -13 73 0 84 4 75 26
-4 10 -23 14 -67 14 -35 0 -66 -3 -69 -7z"/>
<path d="M1327 546 c-9 -22 2 -26 75 -26 61 0 68 2 68 20 0 18 -7 20 -69 20
-50 0 -70 -4 -74 -14z"/>
<path d="M1325 430 c-13 -21 9 -30 76 -30 62 0 69 2 69 20 0 18 -7 20 -69 20
-39 0 -73 -4 -76 -10z"/>
</g>
</svg>
