<?xml version="1.0" standalone="no"?>
<!DOCTYPE svg PUBLIC "-//W3C//DTD SVG 20010904//EN"
 "http://www.w3.org/TR/2001/REC-SVG-20010904/DTD/svg10.dtd">
<svg version="1.0" xmlns="http://www.w3.org/2000/svg"
 width="182.000000pt" height="148.000000pt" viewBox="0 0 182.000000 148.000000"
 preserveAspectRatio="xMidYMid meet">

<g transform="translate(0.000000,148.000000) scale(0.100000,-0.100000)"
fill="#000000" stroke="none">
<path d="M583 1448 c-6 -18 -46 -125 -88 -238 -42 -113 -81 -216 -85 -230 -5
-14 -31 -86 -59 -160 -28 -74 -49 -136 -47 -137 2 -2 20 6 40 18 20 11 58 27
84 33 l47 12 122 325 c67 178 123 328 126 334 3 9 206 -62 730 -255 92 -34
167 -66 167 -72 0 -5 -27 -81 -60 -169 -33 -88 -60 -161 -60 -163 0 -3 15 -7
33 -11 17 -4 46 -15 64 -25 l32 -19 35 92 c112 293 144 383 138 388 -4 4 -195
74 -425 158 l-417 151 -183 0 -184 0 -10 -32z"/>
<path d="M822 1153 c-12 -32 -18 -61 -14 -65 4 -3 44 -20 90 -37 75 -27 84
-28 89 -13 3 9 14 38 24 63 l18 47 -87 31 c-48 17 -90 31 -93 31 -4 0 -16 -26
-27 -57z"/>
<path d="M1202 1016 c-12 -33 -19 -63 -15 -67 5 -3 45 -20 91 -37 74 -27 84
-29 89 -14 2 10 13 38 23 65 11 26 18 47 16 47 -2 0 -44 15 -93 33 l-89 34
-22 -61z"/>
<path d="M740 928 c-18 -49 -19 -62 -9 -69 32 -19 162 -60 169 -52 11 12 45
112 39 116 -2 2 -43 17 -90 35 l-87 30 -22 -60z"/>
<path d="M1121 790 c-13 -34 -21 -63 -19 -65 2 -2 41 -18 87 -35 66 -24 86
-28 93 -18 11 18 41 109 37 112 -2 2 -35 15 -74 29 -38 14 -77 28 -86 32 -12
5 -21 -8 -38 -55z"/>
<path d="M386 610 c-26 -17 -78 -62 -115 -100 -70 -71 -110 -92 -136 -70 -13
10 -25 6 -70 -24 -30 -20 -55 -40 -55 -44 0 -14 54 -60 83 -71 85 -32 178 3
276 104 65 67 80 71 81 19 0 -38 55 -110 102 -133 96 -46 178 -20 301 98 48
46 89 82 90 80 2 -2 8 -26 15 -52 25 -97 83 -142 181 -142 83 0 128 25 226
124 38 39 72 71 75 71 4 0 12 -23 19 -51 14 -55 57 -111 102 -135 15 -7 54
-14 86 -14 46 0 69 6 110 30 28 16 54 33 57 38 3 5 -17 30 -44 57 -48 47 -49
48 -74 32 -35 -24 -72 -21 -90 5 -20 28 -20 77 -1 102 13 17 12 22 -6 48 -42
59 -118 74 -190 38 -22 -12 -82 -61 -133 -110 -105 -100 -139 -116 -168 -80
-21 26 -23 67 -6 105 11 24 8 29 -24 62 -27 27 -46 36 -79 40 -67 7 -112 -18
-219 -122 -103 -100 -138 -119 -170 -90 -27 24 -32 60 -15 102 15 35 14 37 -7
61 -57 61 -128 68 -202 22z"/>
<path d="M412 245 c-18 -8 -75 -55 -127 -105 -75 -73 -99 -90 -123 -90 -17 0
-32 5 -34 12 -3 7 -25 -3 -58 -25 l-55 -37 165 0 164 0 48 47 47 46 6 -29 c16
-70 -3 -64 209 -64 l192 0 44 45 c24 24 46 42 50 40 4 -3 10 -23 14 -45 l6
-40 193 0 193 0 44 45 c24 25 47 45 50 45 3 0 10 -19 16 -42 l9 -43 160 -3
160 -2 -34 29 -34 29 -40 -21 -40 -21 -23 28 c-27 31 -30 65 -10 105 14 27 14
29 -25 67 -36 36 -45 39 -93 39 -67 -1 -105 -24 -217 -132 -47 -45 -98 -85
-113 -89 -55 -13 -85 54 -54 122 11 24 9 29 -24 60 -81 74 -157 54 -293 -76
-130 -125 -164 -139 -191 -73 -14 33 -14 40 2 75 17 38 17 39 -7 64 -47 51
-114 66 -177 39z"/>
</g>
</svg>
