<?xml version="1.0" standalone="no"?>
<!DOCTYPE svg PUBLIC "-//W3C//DTD SVG 20010904//EN"
 "http://www.w3.org/TR/2001/REC-SVG-20010904/DTD/svg10.dtd">
<svg version="1.0" xmlns="http://www.w3.org/2000/svg"
 width="225.000000pt" height="225.000000pt" viewBox="0 0 225.000000 225.000000"
 preserveAspectRatio="xMidYMid meet">

<g transform="translate(0.000000,225.000000) scale(0.100000,-0.100000)"
fill="#000000" stroke="none">
<path d="M66 874 c-26 -25 -19 -34 29 -34 49 0 55 8 27 33 -23 21 -36 21 -56
1z"/>
<path d="M256 877 c-31 -23 -21 -51 52 -148 40 -53 72 -100 72 -105 -1 -5 -23
-26 -50 -47 -51 -39 -63 -70 -38 -95 21 -21 54 -13 101 23 25 19 48 35 51 35
2 0 18 -17 35 -39 l31 -39 -20 -57 c-23 -67 -25 -96 -8 -113 16 -16 53 -15 67
2 14 16 61 153 61 176 0 16 -223 320 -284 388 -32 35 -44 38 -70 19z"/>
<path d="M442 878 c-24 -24 -13 -38 28 -38 44 0 55 21 21 40 -25 13 -34 13
-49 -2z"/>
<path d="M627 872 c-25 -28 -21 -32 28 -32 48 0 55 9 29 34 -20 21 -37 20 -57
-2z"/>
<path d="M816 874 c-26 -25 -19 -34 29 -34 49 0 55 8 27 33 -23 21 -36 21 -56
1z"/>
<path d="M1006 877 c-25 -19 -24 -33 24 -275 l43 -213 -66 -67 c-66 -67 -79
-96 -55 -120 26 -26 54 -11 136 71 90 91 90 91 68 195 -7 34 -11 62 -7 62 3 0
26 -14 51 -30 66 -44 110 -37 110 17 0 24 -10 33 -120 102 l-75 48 -17 88
c-24 123 -48 154 -92 122z"/>
<path d="M1192 878 c-24 -24 -13 -38 28 -38 44 0 55 21 21 40 -25 13 -34 13
-49 -2z"/>
<path d="M1377 872 c-25 -28 -21 -32 28 -32 48 0 55 9 29 34 -20 21 -37 20
-57 -2z"/>
<path d="M1566 874 c-26 -25 -19 -34 29 -34 49 0 55 8 27 33 -23 21 -36 21
-56 1z"/>
<path d="M1762 883 c-18 -7 -45 -71 -87 -210 -45 -144 -47 -136 68 -194 68
-35 78 -43 74 -62 -32 -137 -40 -196 -28 -211 15 -17 48 -21 69 -7 18 11 71
261 62 287 -5 11 -42 36 -89 59 -44 21 -81 42 -81 45 0 3 18 59 40 124 35 104
38 122 27 145 -12 26 -31 34 -55 24z"/>
<path d="M1942 878 c-24 -24 -13 -38 28 -38 44 0 55 21 21 40 -25 13 -34 13
-49 -2z"/>
<path d="M2127 872 c-25 -28 -21 -32 28 -32 48 0 55 9 29 34 -20 21 -37 20
-57 -2z"/>
</g>
</svg>
