<?xml version="1.0" standalone="no"?>
<!DOCTYPE svg PUBLIC "-//W3C//DTD SVG 20010904//EN"
 "http://www.w3.org/TR/2001/REC-SVG-20010904/DTD/svg10.dtd">
<svg version="1.0" xmlns="http://www.w3.org/2000/svg"
 width="173.000000pt" height="148.000000pt" viewBox="0 0 173.000000 148.000000"
 preserveAspectRatio="xMidYMid meet">

<g transform="translate(0.000000,148.000000) scale(0.100000,-0.100000)"
fill="#000000" stroke="none">
<path d="M480 1437 c-30 -24 -145 -113 -254 -198 -209 -162 -234 -190 -221
-249 10 -46 50 -75 101 -74 l44 1 0 -397 0 -397 39 -11 c47 -15 141 -15 201
-1 69 15 184 76 235 123 l45 42 37 -39 c21 -22 65 -52 98 -68 50 -24 73 -29
136 -29 64 0 85 5 137 30 33 17 75 47 92 67 l32 36 42 -45 c65 -71 113 -91
210 -86 69 3 92 9 158 42 96 47 114 65 94 92 -12 16 -18 17 -33 7 -96 -64
-169 -93 -235 -93 l-38 0 0 364 0 365 35 -6 c70 -11 120 32 118 102 -2 57 10
46 -310 293 l-223 172 -242 0 -243 0 -55 -43z m580 -260 c143 -115 264 -217
270 -227 13 -24 14 -717 1 -724 -12 -7 -68 56 -89 100 -19 40 -56 47 -67 13
-11 -32 -74 -98 -115 -119 -51 -26 -129 -35 -175 -20 -48 16 -110 72 -138 124
-16 31 -21 59 -21 111 0 78 15 118 67 173 77 81 232 58 280 -41 16 -31 17 -43
7 -71 -22 -67 -88 -112 -147 -101 -37 7 -59 34 -78 97 -13 44 -37 58 -43 25
-13 -64 42 -149 107 -167 98 -26 211 67 211 174 0 69 -35 122 -101 156 -152
78 -403 -27 -529 -222 -39 -59 -75 -161 -85 -240 l-6 -47 -50 -10 c-56 -12
-100 -14 -123 -5 -14 5 -16 50 -16 403 l1 396 43 37 c118 101 510 399 522 396
7 -2 130 -97 274 -211z"/>
<path d="M736 1149 c-58 -14 -103 -46 -131 -93 -23 -39 -25 -53 -25 -164 l0
-122 200 0 200 0 0 114 c0 131 -7 156 -57 208 -50 51 -119 72 -187 57z m24
-109 l0 -80 -75 0 c-72 0 -75 1 -75 23 0 33 51 100 91 120 57 28 59 25 59 -63z
m126 45 c31 -24 64 -79 64 -109 0 -13 -13 -16 -75 -16 l-75 0 0 81 0 81 28 -7
c15 -3 41 -17 58 -30z m-126 -225 l0 -60 -75 0 -75 0 0 60 0 60 75 0 75 0 0
-60z m190 0 l0 -60 -75 0 -75 0 0 60 0 60 75 0 75 0 0 -60z"/>
<path d="M1190 1471 c0 -9 100 -80 180 -128 l35 -22 -3 80 -4 79 -104 0 c-57
0 -104 -4 -104 -9z"/>
<path d="M1189 88 c-9 -7 -26 -30 -38 -50 l-23 -38 76 0 75 0 -27 47 c-31 52
-41 59 -63 41z"/>
<path d="M617 45 l-38 -45 85 0 86 0 -32 45 c-18 25 -39 45 -48 45 -9 0 -33
-20 -53 -45z"/>
<path d="M1665 14 c-18 -13 -18 -14 8 -14 15 0 27 4 27 9 0 17 -15 19 -35 5z"/>
</g>
</svg>
