<?xml version="1.0" standalone="no"?>
<!DOCTYPE svg PUBLIC "-//W3C//DTD SVG 20010904//EN"
 "http://www.w3.org/TR/2001/REC-SVG-20010904/DTD/svg10.dtd">
<svg version="1.0" xmlns="http://www.w3.org/2000/svg"
 width="231.000000pt" height="218.000000pt" viewBox="0 0 231.000000 218.000000"
 preserveAspectRatio="xMidYMid meet">

<g transform="translate(0.000000,218.000000) scale(0.100000,-0.100000)"
fill="#000000" stroke="none">
<path d="M1016 2148 c-12 -17 -16 -50 -16 -138 0 -109 2 -118 23 -138 29 -27
57 -28 88 -3 23 18 24 25 24 139 0 104 -3 123 -19 141 -26 29 -80 28 -100 -1z"/>
<path d="M540 2023 c-52 -19 -52 -75 2 -166 55 -95 76 -117 109 -117 29 0 69
39 69 68 0 23 -99 190 -123 207 -22 16 -32 17 -57 8z"/>
<path d="M950 1694 c-177 -38 -339 -164 -419 -325 -93 -189 -93 -369 0 -558
102 -207 340 -350 563 -339 l61 3 3 618 2 617 -72 -1 c-40 0 -102 -7 -138 -15z"/>
<path d="M2005 1658 c-16 -6 -78 -40 -138 -76 -155 -93 -233 -110 -343 -77
-27 8 -61 15 -76 15 -58 0 -89 -69 -49 -109 55 -55 276 -74 382 -33 30 12 82
39 115 59 97 60 165 93 193 93 15 0 50 -12 79 -26 61 -30 98 -28 125 8 27 36
16 69 -34 102 -80 53 -180 70 -254 44z"/>
<path d="M151 1624 c-41 -53 -26 -78 89 -144 103 -59 144 -64 169 -19 27 48
10 73 -93 133 -107 63 -135 68 -165 30z"/>
<path d="M1995 1233 c-22 -9 -74 -38 -115 -64 -153 -97 -234 -116 -360 -83
-83 21 -119 14 -134 -29 -18 -51 8 -78 99 -105 65 -19 96 -23 165 -19 101 6
154 25 277 100 112 69 149 82 200 67 21 -5 47 -17 57 -25 47 -36 126 -5 126
49 0 34 -26 61 -94 96 -47 24 -70 30 -120 29 -33 0 -79 -7 -101 -16z"/>
<path d="M20 1120 c-26 -26 -26 -64 0 -90 18 -18 33 -20 140 -20 107 0 122 2
140 20 26 26 26 64 0 90 -18 18 -33 20 -140 20 -107 0 -122 -2 -140 -20z"/>
<path d="M2000 812 c-25 -10 -81 -41 -125 -69 -147 -95 -234 -112 -371 -76
-62 17 -64 17 -91 -3 -64 -48 -33 -106 72 -135 144 -40 277 -18 415 67 155 95
188 102 284 58 49 -22 59 -24 83 -12 41 19 52 61 27 96 -55 74 -202 111 -294
74z"/>
<path d="M252 674 c-102 -61 -122 -87 -100 -132 7 -14 26 -30 41 -35 24 -8 41
-2 120 43 51 29 98 60 105 68 31 39 -2 112 -50 112 -13 -1 -65 -26 -116 -56z"/>
<path d="M631 403 c-37 -38 -111 -174 -111 -205 0 -33 29 -58 68 -58 35 0 57
24 116 131 43 79 46 110 10 138 -35 28 -50 26 -83 -6z"/>
<path d="M1050 300 c-19 -19 -20 -31 -18 -137 3 -112 4 -117 29 -136 28 -20
57 -17 84 9 12 12 15 42 15 134 0 111 -1 120 -22 134 -31 22 -64 20 -88 -4z"/>
</g>
</svg>
