<?xml version="1.0" standalone="no"?>
<!DOCTYPE svg PUBLIC "-//W3C//DTD SVG 20010904//EN"
 "http://www.w3.org/TR/2001/REC-SVG-20010904/DTD/svg10.dtd">
<svg version="1.0" xmlns="http://www.w3.org/2000/svg"
 width="182.000000pt" height="148.000000pt" viewBox="0 0 182.000000 148.000000"
 preserveAspectRatio="xMidYMid meet">

<g transform="translate(0.000000,148.000000) scale(0.100000,-0.100000)"
fill="#000000" stroke="none">
<path d="M1268 1463 c6 -2 18 -2 25 0 6 3 1 5 -13 5 -14 0 -19 -2 -12 -5z"/>
<path d="M1365 1431 c100 -47 147 -121 147 -228 1 -43 -5 -71 -17 -90 l-18
-27 -32 70 c-59 128 -147 178 -315 178 -119 0 -227 -28 -365 -94 -176 -84
-337 -204 -445 -331 -53 -62 -52 -62 38 24 109 102 213 175 327 228 73 34 165
60 165 46 0 -3 -45 -33 -100 -67 -434 -266 -632 -679 -427 -890 37 -39 135
-86 192 -94 l40 -6 -45 13 c-86 26 -157 83 -185 149 -26 64 -15 208 17 208 4
0 20 -26 34 -57 63 -143 194 -201 395 -174 246 32 559 216 744 437 42 51 36
46 -46 -32 -111 -107 -197 -169 -305 -222 -96 -47 -146 -64 -176 -60 -18 2 -6
13 59 52 115 69 243 168 308 237 234 254 290 533 133 674 -43 40 -130 85 -163
85 -11 0 7 -13 40 -29z m-115 -259 c158 -127 34 -406 -255 -575 -26 -15 -45
-30 -43 -33 10 -9 116 37 178 77 34 22 88 63 119 91 31 28 20 15 -25 -29 -134
-134 -296 -214 -434 -217 -113 -2 -171 28 -205 105 -21 44 -30 49 -39 17 -20
-78 15 -148 92 -185 l27 -13 -30 6 c-40 7 -96 52 -118 95 -28 52 -19 147 21
224 56 109 127 182 265 272 38 25 67 47 64 49 -7 7 -87 -25 -146 -58 -30 -18
-85 -57 -121 -87 l-65 -54 45 47 c86 91 226 177 344 211 66 19 177 22 221 5
42 -16 82 -57 96 -97 18 -55 39 -36 39 36 0 51 -35 100 -90 130 -45 23 -45 23
-10 17 19 -4 51 -19 70 -34z"/>
<path d="M925 978 c-87 -32 -181 -116 -216 -192 -23 -50 -24 -78 -4 -116 57
-110 318 -11 399 152 38 76 31 134 -21 157 -30 14 -118 13 -158 -1z m46 -108
c26 -14 24 -43 -6 -79 -47 -55 -135 -63 -135 -11 0 25 62 87 92 93 13 2 24 5
26 6 2 0 12 -4 23 -9z"/>
</g>
</svg>
